<svg xmlns="http://www.w3.org/2000/svg" xmlns:svg="http://www.w3.org/2000/svg" xmlns:xlink="http://www.w3.org/1999/xlink" id="svg3792" version="1.1" viewBox="0 0 48 48"><defs id="defs9"><linearGradient id="linearGradient3978" x1="46.064" x2="87.876" y1="58.794" y2="58.794" gradientTransform="matrix(0.11594626,0,0,0.11594626,49.467241,980.23274)" gradientUnits="userSpaceOnUse" xlink:href="#linearGradient3789"/><linearGradient id="linearGradient3789"><stop style="stop-color:#7bc7eb;stop-opacity:.90178573" id="stop3791" offset="0"/><stop style="stop-color:#000;stop-opacity:.9464286" id="stop3793" offset="1"/></linearGradient><linearGradient id="linearGradient3980" x1="59.999" x2="76.43" y1="46.929" y2="46.929" gradientUnits="userSpaceOnUse" xlink:href="#linearGradient3814"/><linearGradient id="linearGradient3814"><stop id="stop3816" offset="0" style="stop-color:#92999c;stop-opacity:.90178573"/><stop id="stop3818" offset="1" style="stop-color:#f7f7f7;stop-opacity:.9464286"/></linearGradient><linearGradient id="linearGradient3887" x1="46.064" x2="87.876" y1="58.794" y2="58.794" gradientUnits="userSpaceOnUse" xlink:href="#linearGradient4412-4"/><linearGradient id="linearGradient4412-4"><stop style="stop-color:#00ff0c;stop-opacity:1" id="stop4414-0" offset="0"/><stop style="stop-color:#085208;stop-opacity:1" id="stop4416-9" offset="1"/></linearGradient><linearGradient id="linearGradient3889" x1="59.999" x2="76.43" y1="46.929" y2="46.929" gradientUnits="userSpaceOnUse" xlink:href="#linearGradient3877"/><linearGradient id="linearGradient3877"><stop style="stop-color:#fff;stop-opacity:.90178573" id="stop3879" offset="0"/><stop style="stop-color:#29e624;stop-opacity:.77678573" id="stop3881" offset="1"/></linearGradient></defs><metadata id="metadata4"/><circle style="color:#000;display:inline;overflow:visible;visibility:visible;opacity:1;fill:#f9e9d0;fill-opacity:1;fill-rule:nonzero;stroke:none;stroke-width:.39701125;stroke-linecap:butt;stroke-linejoin:miter;stroke-miterlimit:4;stroke-dasharray:none;stroke-dashoffset:0;stroke-opacity:1;marker:none;enable-background:accumulate" id="path5047" cx="24" cy="24" r="23.448"/><g id="g3883" transform="matrix(0.19774461,0,0,0.19774461,22.810632,-181.21245)"><path id="path3084" d="M 56.962565,71.308319 C 49.154192,54.468369 41.911019,43.181255 48.866354,31.64412 55.821688,20.106985 77.927432,20.03995 85.072196,31.305398 92.849117,43.567595 82.44269,60.518243 78.046757,70.616169 73.650824,80.714095 72.559715,82.794897 67.3791,94.664963 c 0,0 -2.608162,-6.516694 -10.416535,-23.356644 z" transform="translate(0,924.36218)" style="opacity:.98557691;fill:url(#linearGradient3887);fill-opacity:1;fill-rule:nonzero;stroke:none"/><path id="path3867" d="m 63.809601,52.656233 a 8.2142859,6.7857141 0 0 1 -2.598595,-9.27393 8.2142859,6.7857141 0 0 1 11.183188,-2.295217 8.2142859,6.7857141 0 0 1 2.957532,9.200261 8.2142859,6.7857141 0 0 1 -11.088262,2.590511" transform="matrix(1,0,0,1.2103172,-0.89285714,911.81249)" style="opacity:.98557691;fill:url(#linearGradient3889);fill-opacity:1;fill-rule:nonzero;stroke:none"/></g><g id="g3973" transform="matrix(0.53579868,0,0,0.53579868,2.1046967,-519.17774)" style="opacity:1"><g id="g3949" transform="matrix(3.3585925,0,0,3.3585925,-175.73711,-2286.3399)"><path style="opacity:.98557691;fill:url(#linearGradient3978);fill-opacity:1;fill-rule:nonzero;stroke:none" id="path3084-1" d="m 56.071837,988.50067 c -0.905351,-1.95253 -1.74517,-3.26122 -0.938725,-4.59891 0.806445,-1.33769 3.369523,-1.34546 4.197932,-0.0393 0.901705,1.42176 -0.304881,3.38712 -0.814573,4.55794 -0.509692,1.17082 -0.636202,1.41208 -1.236875,2.78837 0,0 -0.302407,-0.75559 -1.207759,-2.70812 z"/><path style="opacity:.98557691;fill:url(#linearGradient3980);fill-opacity:1;fill-rule:nonzero;stroke:none" id="path3867-2" d="m 63.809601,52.656233 a 8.2142859,6.7857141 0 0 1 -2.598595,-9.27393 8.2142859,6.7857141 0 0 1 11.183188,-2.295217 8.2142859,6.7857141 0 0 1 2.957532,9.200261 8.2142859,6.7857141 0 0 1 -11.088262,2.590511" transform="matrix(0.11594626,0,0,0.14033175,49.363718,978.77765)"/></g></g><path style="fill:none;stroke:#22732f;stroke-width:1.43618882;stroke-linecap:butt;stroke-linejoin:miter;stroke-miterlimit:1;stroke-dasharray:1.43618863,1.43618863;stroke-dashoffset:0;stroke-opacity:1" id="path3959" d="m 10.531669,41.339988 c 6.837864,-3.6849 21.632303,-9.000594 27.488804,-10.992336 -14.750556,-4.003357 -14.703781,-4.035242 -22.252168,-7.707241 0.146792,-6.022987 1.034879,-7.756036 0.819526,-10.771248 6.492323,3.794546 7.435243,4.140172 19.241885,10.961269"/><g id="layer1" transform="matrix(0.83578945,0,0,0.83578945,2.7588583,3.603645)"><path id="path2832" fill="#333" fill-opacity=".667" d="m 21.185,9.4157 c -8.2753,0 -14.988,6.7131 -14.988,14.988 0,8.2754 6.713,14.988 14.988,14.988 6.374,0 11.794,-4.0065 13.959,-9.617 -3.5261,2.6867 -4.3343,3.0888 -4.5029,1.1257 -2.0722,3.0029 -5.5317,4.9854 -9.4562,4.9854 -6.3444,0 -11.515,-5.138 -11.515,-11.482 0,-6.3442 5.1702,-11.482 11.515,-11.482 2.4461,0 4.6984,0.75528 6.5614,2.0585 0.11106,-0.02811 0.17058,-0.03426 0.28947,-0.06433 2.0239,-0.51158 2.4263,-0.69568 2.5088,-2.2193 -2.5664,-2.0599 -5.8128,-3.2807 -9.3597,-3.2807 z m 11.225,1.2222 c -0.53956,-0.0053 -0.57895,0.71121 -0.57895,2.1871 0,2.3279 -0.0336,2.3747 -2.0906,2.8947 -4.8087,1.2156 -8.7724,3.4279 -12.158,6.7866 -3.3615,3.3347 -4.9751,6.022 -4.3421,7.2047 0.12204,0.22808 0.3207,0.28947 0.83626,0.28947 0.56976,0 0.81575,-0.08707 1.5117,-0.64328 1.452,-1.1604 1.8991,-1.4723 3.2807,-2.2193 3.3098,-1.7895 7.1101,-2.6476 10.678,-2.3801 1.3059,0.09788 1.5834,0.16823 1.8977,0.48246 0.3457,0.34572 0.38596,0.4997 0.38596,2.3158 0,3.0696 0.20846,3.0831 3.9883,0.19298 1.521,-1.1629 3.5659,-2.731 4.5673,-3.4737 3.5897,-2.6629 3.9484,-2.9063 4.2135,-3.4737 l 0.03216,-0.28947 c -0.03922,-0.59675 -0.01662,-1.0803 -8.6842,-7.6228 -1.9817,-1.4956 -2.9985,-2.2461 -3.538,-2.2515 z"/></g></svg>